<svg width="462" height="298" viewBox="0 0 462 298" fill="none" xmlns="http://www.w3.org/2000/svg">
<g clip-path="url(#clip0)">
<path d="M79.0358 53.7836C79.0358 54.7832 79.0868 55.7726 79.1786 56.7722H76.3532C76.2512 56.5274 76.1594 56.1194 76.139 55.8032H76.0166C75.4556 56.3846 74.7212 56.9456 73.0178 56.9456C70.7738 56.9456 69.2642 55.5584 69.2642 53.0798C69.2642 50.6012 71.2328 49.1426 75.6698 49.1426H76.1288V48.4592C76.1288 47.1434 75.4964 46.664 74.1092 46.664C72.62 46.664 70.9166 47.2964 70.1414 47.8778V45.4706C71.0186 44.9606 72.5282 44.3486 74.456 44.3486C77.5262 44.3486 79.0358 45.4706 79.0358 48.4286V53.7836ZM76.139 51.0602H75.7208C73.232 51.0602 72.2324 51.5702 72.2324 53.0084C72.2324 54.0998 72.8444 54.8342 74.0582 54.8342C75.0782 54.8342 75.7616 54.3956 76.1288 53.8652V51.0602H76.139ZM84.299 56.7722H81.4022V44.5526H84.2276L84.299 45.5726H84.4418C85.0232 44.9912 86.0534 44.3588 87.7772 44.3588C90.1436 44.3588 91.1126 45.4298 91.1126 47.8574V56.7722H88.226V48.143C88.226 47.2148 87.767 46.7864 86.7368 46.7864C85.6862 46.7864 84.8396 47.3474 84.299 48.0002V56.7722ZM93.071 50.744C93.071 46.664 95.0192 44.3078 97.8242 44.3078C99.089 44.3078 100.16 44.8892 100.894 45.9806V39.881H103.791V56.762H101.109L100.966 55.181C100.191 56.3744 99.0686 57.0068 97.7018 57.0068C94.9682 57.017 93.071 54.773 93.071 50.744ZM96.0698 50.744C96.0698 53.5184 96.845 54.7322 98.4362 54.7322C100.068 54.7322 100.894 53.498 100.894 50.6522C100.894 47.837 100.119 46.5926 98.5586 46.5926C96.896 46.5926 96.0698 47.8574 96.0698 50.744ZM111.441 57.017C107.739 57.017 105.648 54.9566 105.648 50.7032C105.648 47.0108 107.331 44.318 110.86 44.318C113.757 44.318 115.633 45.9194 115.633 50.1728V51.7028H108.646C108.769 53.7428 109.575 54.7424 111.696 54.7424C113.114 54.7424 114.624 54.212 115.521 53.6V55.946C114.654 56.5274 113.287 57.017 111.441 57.017ZM108.636 49.5506H112.675V49.316C112.675 47.786 112.237 46.5926 110.799 46.5926C109.422 46.5926 108.708 47.6126 108.636 49.5506ZM121.692 52.6412L119.234 56.7722H116.286L120.132 50.4074L116.429 44.5526H119.693L122.029 48.245L124.12 44.5526H127.017L123.559 50.4788L127.557 56.7722H124.293L121.692 52.6412Z" fill="white"/>
<path d="M62.1344 56.7722V55.0688C62.1344 52.7636 61.8692 51.6212 60.941 49.622L56.4326 39.881H59.5538L63.3788 48.2144C64.5008 50.642 64.9904 51.9068 64.9904 54.7016V56.762H62.1344V56.7722Z" fill="white"/>
<path d="M63.96 48.0512L67.5198 39.881H70.5084L66.9078 48.0512H63.96Z" fill="white"/>
</g>
<g clip-path="url(#clip1)">
<path d="M100.41 137.343L97.9403 147.298L95.6202 137.343H90.98L95.7699 154.258H99.7366L102.281 144.603L104.826 154.258H108.942L113.358 137.343H109.092L106.847 147.372L104.152 137.343H100.41Z" fill="white"/>
<path d="M85.3671 150.366V147.672H89.708V143.855H85.3671V141.16H90.5312V137.343H81.1011V154.183H90.5312V150.366H85.3671Z" fill="white"/>
<path d="M117.998 150.366V147.672H122.339V143.855H117.998V141.16H123.162V137.343H113.732V154.183H123.162V150.366H117.998Z" fill="white"/>
<path d="M66.2818 150.366H61.8661V137.343H57.6001V154.183H66.2818V150.366Z" fill="white"/>
<path d="M125.183 150.366V154.183H129V150.366H125.183Z" fill="white"/>
<path d="M80.4273 144.977C80.4273 143.031 79.8285 137.343 73.6166 136.894C73.3921 136.894 73.1675 136.894 72.943 136.894C66.7311 137.343 66.1323 142.957 66.1323 144.977C66.1323 145.202 66.1323 146.325 66.1323 146.549C66.1323 148.495 66.7311 154.183 72.943 154.632C73.1675 154.632 73.3921 154.632 73.6166 154.632C79.8285 154.183 80.4273 148.57 80.4273 146.549C80.4273 146.325 80.4273 145.202 80.4273 144.977ZM76.2361 146.998C76.2361 150.516 73.3921 150.441 73.3172 150.441C73.2424 150.441 70.3984 150.516 70.3984 146.998C70.3984 146.624 70.3984 144.903 70.3984 144.528C70.3984 141.011 73.2424 141.086 73.3172 141.086C73.3921 141.086 76.2361 141.011 76.2361 144.528C76.2361 144.977 76.2361 146.624 76.2361 146.998Z" fill="white"/>
</g>
<path d="M198.14 157.985C198.14 157.985 236.899 148.047 265.615 155.048L265.704 154.725C265.704 154.725 240.647 147.001 198.622 156.409" fill="white"/>
<path d="M216.694 138.482V140.13C216.836 139.8 217.018 139.353 217.505 138.929C218.033 138.459 218.804 138.2 219.555 138.2C219.939 138.2 220.325 138.271 220.71 138.412C221.907 138.882 222.252 139.87 222.394 140.293C223.327 138.483 224.807 138.224 225.598 138.224C226.571 138.224 227.424 138.601 227.992 139.189C229.005 140.224 229.046 141.352 229.046 144.176V150.668H226.065V144.904C226.065 142.951 226.025 142.551 225.72 142.035C225.396 141.47 224.929 141.351 224.482 141.351C223.671 141.351 223.266 141.963 223.205 142.058C222.88 142.646 222.88 143.657 222.88 144.645V150.667H219.899V144.528C219.899 143.211 219.899 142.623 219.594 142.081C219.372 141.682 218.925 141.351 218.378 141.351C218.115 141.351 217.85 141.422 217.607 141.564C216.734 142.081 216.714 142.976 216.714 145.281V150.668H213.732V138.482" fill="white"/>
<path d="M240.904 138.482H243.945L240.904 150.668H238.123L236.358 142.435L234.615 150.668H231.796L228.753 138.482H231.796L233.398 146.104L235.041 138.482H237.677L239.301 146.104" fill="white"/>
<path d="M250.361 150.667H253.282V138.459H250.422V140.035C249.895 138.859 248.982 138.177 247.826 138.177C245.839 138.177 243.242 139.965 243.242 144.763C243.242 148.574 245.107 150.927 247.602 150.927C249.306 150.927 249.996 149.892 250.36 149.327L250.361 150.667ZM250.207 144.434C250.207 145.54 250.066 146.599 249.436 147.399C248.909 148.033 248.321 148.081 248.138 148.081C247.55 148.081 246.881 147.704 246.475 146.645C246.232 146.034 246.15 145.304 246.15 144.551C246.15 143.61 246.273 142.646 246.779 141.87C247.144 141.328 247.712 140.976 248.26 140.976C248.706 140.976 249.152 141.21 249.457 141.587C249.842 142.035 250.207 142.858 250.207 144.434Z" fill="white"/>
<path d="M260.168 138.482H263.198L259.863 150.573C259.62 151.421 259.235 152.809 258.646 153.491C258.098 154.103 257.449 154.386 255.036 154.386C254.691 154.386 254.549 154.361 254.245 154.338V151.632H255.036C255.32 151.632 255.989 151.632 256.293 151.327C256.537 151.115 256.74 150.598 256.74 150.103C256.74 149.845 256.617 149.373 256.516 149.068L253.271 138.482H256.516L258.423 146.692" fill="white"/>
<path d="M205.182 134.022L200.174 150.667H203.853L204.787 147.131H209.484L210.44 150.667H214.139L208.922 134.022H205.182ZM207.073 137.677L208.673 144.09H205.557L207.073 137.677Z" fill="white"/>
<g clip-path="url(#clip2)">
<path d="M350.093 231.287H346V235.416H350.093V231.287Z" fill="white"/>
<path d="M349.991 252.798V237.929H346.117V252.798H349.991ZM375.744 252.945V249.301C375.176 249.301 374.695 249.272 374.345 249.213C373.937 249.154 373.632 249.007 373.428 248.801C373.224 248.596 373.093 248.302 373.02 247.92C372.962 247.552 372.932 247.068 372.932 246.48V241.279H375.744V237.929H372.932V232.125H369.043V246.509C369.043 247.729 369.145 248.757 369.349 249.58C369.553 250.388 369.903 251.049 370.383 251.549C370.864 252.048 371.505 252.401 372.277 252.622C373.063 252.842 374.054 252.945 375.234 252.945H375.744ZM398 252.798V230.979H394.111V252.798H398ZM365.3 239.383C364.222 238.208 362.707 237.62 360.784 237.62C359.852 237.62 359.007 237.811 358.235 238.193C357.478 238.575 356.823 239.104 356.313 239.78L356.094 240.059V239.809V237.929H352.263V252.798H356.123V244.878V245.422C356.123 245.334 356.123 245.246 356.123 245.157C356.167 243.762 356.502 242.733 357.143 242.072C357.828 241.367 358.658 241.014 359.605 241.014C360.726 241.014 361.586 241.367 362.154 242.043C362.707 242.718 362.998 243.673 362.998 244.893V244.922V252.783H366.917V244.349C366.931 242.234 366.378 240.559 365.3 239.383ZM392.101 245.334C392.101 244.261 391.912 243.262 391.548 242.322C391.169 241.396 390.644 240.573 389.989 239.868C389.319 239.163 388.518 238.619 387.586 238.222C386.653 237.826 385.619 237.635 384.498 237.635C383.434 237.635 382.429 237.84 381.497 238.237C380.565 238.648 379.749 239.192 379.065 239.883C378.38 240.573 377.827 241.396 377.433 242.336C377.025 243.277 376.836 244.291 376.836 245.363C376.836 246.436 377.025 247.45 377.404 248.39C377.783 249.33 378.322 250.153 378.992 250.844C379.662 251.534 380.492 252.093 381.453 252.489C382.415 252.901 383.478 253.106 384.614 253.106C387.906 253.106 389.945 251.593 391.169 250.182L388.372 248.037C387.79 248.743 386.391 249.698 384.643 249.698C383.551 249.698 382.648 249.448 381.963 248.934C381.279 248.434 380.812 247.729 380.565 246.862L380.521 246.73H392.101V245.334ZM380.55 243.967C380.55 242.88 381.788 240.985 384.454 240.97C387.12 240.97 388.372 242.865 388.372 243.953L380.55 243.967Z" fill="white"/>
</g>
<g clip-path="url(#clip3)">
<path d="M204.692 230C198.238 230 193 235.373 193 241.993C193 248.627 198.238 253.986 204.692 253.986C211.159 253.986 216.383 248.613 216.383 241.993C216.397 235.373 211.159 230 204.692 230ZM210.056 247.309C209.846 247.667 209.399 247.767 209.05 247.552C206.298 245.833 202.848 245.446 198.769 246.392C198.378 246.478 197.987 246.234 197.903 245.833C197.819 245.432 198.057 245.03 198.448 244.944C202.904 243.899 206.731 244.343 209.804 246.277C210.167 246.492 210.279 246.95 210.056 247.309ZM211.494 244.042C211.229 244.486 210.67 244.615 210.237 244.357C207.094 242.365 202.303 241.792 198.587 242.953C198.098 243.096 197.596 242.824 197.456 242.337C197.316 241.835 197.582 241.319 198.071 241.176C202.317 239.858 207.597 240.488 211.215 242.767C211.62 243.024 211.76 243.598 211.494 244.042ZM211.62 240.632C207.848 238.339 201.633 238.124 198.029 239.242C197.456 239.428 196.841 239.084 196.66 238.497C196.478 237.909 196.813 237.279 197.386 237.093C201.521 235.803 208.393 236.061 212.723 238.697C213.24 239.013 213.408 239.7 213.101 240.23C212.807 240.775 212.137 240.947 211.62 240.632Z" fill="white"/>
<path d="M224.82 241.076C222.795 240.589 222.446 240.23 222.446 239.5C222.446 238.812 223.074 238.353 224.01 238.353C224.918 238.353 225.826 238.712 226.776 239.428C226.804 239.457 226.846 239.457 226.874 239.457C226.916 239.457 226.943 239.428 226.957 239.399L227.949 237.967C227.991 237.909 227.977 237.823 227.921 237.78C226.79 236.849 225.519 236.405 224.038 236.405C221.859 236.405 220.336 237.752 220.336 239.672C220.336 241.735 221.649 242.466 223.926 243.024C225.854 243.483 226.189 243.87 226.189 244.543C226.189 245.303 225.533 245.776 224.471 245.776C223.298 245.776 222.334 245.374 221.258 244.414C221.23 244.386 221.188 244.386 221.161 244.386C221.119 244.386 221.091 244.4 221.077 244.429L219.973 245.776C219.931 245.833 219.931 245.919 219.987 245.962C221.244 247.108 222.781 247.71 224.443 247.71C226.79 247.71 228.312 246.392 228.312 244.357C228.284 242.638 227.293 241.692 224.82 241.076Z" fill="white"/>
<path d="M233.606 239.027C232.587 239.027 231.749 239.442 231.064 240.288V239.342C231.064 239.27 231.008 239.213 230.938 239.213H229.136C229.067 239.213 229.011 239.27 229.011 239.342V249.888C229.011 249.959 229.067 250.017 229.136 250.017H230.938C231.008 250.017 231.064 249.959 231.064 249.888V246.564C231.749 247.352 232.587 247.738 233.606 247.738C235.492 247.738 237.42 246.248 237.42 243.383C237.42 240.531 235.492 239.027 233.606 239.027ZM235.311 243.383C235.311 244.844 234.431 245.847 233.187 245.847C231.944 245.847 231.022 244.787 231.022 243.383C231.022 241.978 231.958 240.918 233.187 240.918C234.417 240.918 235.311 241.95 235.311 243.383Z" fill="white"/>
<path d="M242.323 239.027C239.892 239.027 237.979 240.961 237.979 243.411C237.979 245.847 239.878 247.753 242.295 247.753C244.739 247.753 246.653 245.833 246.653 243.383C246.653 240.947 244.753 239.027 242.323 239.027ZM242.323 245.876C241.024 245.876 240.046 244.801 240.046 243.397C240.046 241.978 240.996 240.947 242.295 240.947C243.594 240.947 244.586 242.021 244.586 243.44C244.586 244.844 243.636 245.876 242.323 245.876Z" fill="white"/>
<path d="M251.864 239.199H249.88V237.121C249.88 237.05 249.824 236.992 249.754 236.992H247.952C247.883 236.992 247.827 237.05 247.827 237.121V239.213H246.961C246.891 239.213 246.835 239.27 246.835 239.342V240.933C246.835 241.004 246.891 241.062 246.961 241.062H247.827V245.188C247.827 246.85 248.637 247.696 250.229 247.696C250.872 247.696 251.417 247.552 251.919 247.266C251.961 247.237 251.989 247.194 251.989 247.151V245.632C251.989 245.589 251.961 245.546 251.933 245.518C251.892 245.489 251.85 245.489 251.808 245.518C251.459 245.704 251.123 245.776 250.746 245.776C250.159 245.776 249.908 245.503 249.908 244.902V241.076H251.892C251.961 241.076 252.017 241.019 252.017 240.947V239.342C251.989 239.27 251.933 239.199 251.864 239.199Z" fill="white"/>
<path d="M258.792 239.213V238.955C258.792 238.196 259.071 237.866 259.699 237.866C260.077 237.866 260.384 237.938 260.719 238.053C260.761 238.067 260.803 238.053 260.845 238.038C260.873 238.01 260.901 237.967 260.901 237.924V236.362C260.901 236.304 260.859 236.247 260.803 236.233C260.44 236.118 259.993 236.018 259.294 236.018C257.618 236.018 256.738 236.978 256.738 238.812V239.199H255.872C255.802 239.199 255.732 239.256 255.732 239.328V240.933C255.732 241.004 255.788 241.061 255.872 241.061H256.738V247.423C256.738 247.495 256.794 247.552 256.864 247.552H258.666C258.736 247.552 258.792 247.495 258.792 247.423V241.076H260.482L263.066 247.438C262.773 248.111 262.479 248.24 262.088 248.24C261.767 248.24 261.432 248.14 261.096 247.953C261.068 247.939 261.026 247.939 260.985 247.939C260.957 247.953 260.915 247.982 260.901 248.011L260.286 249.386C260.258 249.458 260.286 249.53 260.342 249.558C260.985 249.916 261.557 250.06 262.27 250.06C263.611 250.06 264.337 249.415 264.994 247.71L268.136 239.399C268.15 239.356 268.15 239.313 268.122 239.27C268.095 239.227 268.053 239.213 268.011 239.213H266.125C266.069 239.213 266.013 239.256 265.999 239.299L264.072 244.944L262.004 239.299C261.99 239.242 261.934 239.213 261.879 239.213H258.792Z" fill="white"/>
<path d="M254.783 239.199H252.981C252.911 239.199 252.855 239.256 252.855 239.328V247.423C252.855 247.495 252.911 247.552 252.981 247.552H254.783C254.852 247.552 254.908 247.495 254.908 247.423V239.342C254.908 239.27 254.852 239.199 254.783 239.199Z" fill="white"/>
<path d="M253.875 235.516C253.162 235.516 252.576 236.118 252.576 236.849C252.576 237.58 253.162 238.181 253.875 238.181C254.587 238.181 255.174 237.58 255.174 236.849C255.174 236.118 254.601 235.516 253.875 235.516Z" fill="white"/>
<path d="M269.729 241.807C269.016 241.807 268.458 241.219 268.458 240.503C268.458 239.786 269.016 239.184 269.743 239.184C270.455 239.184 271.014 239.772 271.014 240.488C271 241.205 270.441 241.807 269.729 241.807ZM269.729 239.313C269.072 239.313 268.583 239.844 268.583 240.503C268.583 241.147 269.072 241.678 269.729 241.678C270.385 241.678 270.874 241.147 270.874 240.488C270.874 239.844 270.385 239.313 269.729 239.313ZM270.008 240.632L270.371 241.147H270.064L269.743 240.675H269.463V241.147H269.212V239.772H269.812C270.12 239.772 270.329 239.93 270.329 240.216C270.329 240.431 270.19 240.574 270.008 240.632ZM269.798 240.016H269.463V240.445H269.798C269.966 240.445 270.064 240.359 270.064 240.23C270.064 240.087 269.966 240.016 269.798 240.016Z" fill="white"/>
</g>
<g clip-path="url(#clip4)">
<path d="M263.629 43V56.7388H266.12V52.655L269.761 56.7388H273L268.487 51.6679L272.682 47.219H269.526L266.12 50.8971V43H263.629Z" fill="white"/>
<path d="M258.383 46.8133C256.943 46.8133 256.03 47.5571 255.587 48.2602V47.219H253.095V56.7388H255.587V50.9241C255.587 49.6125 256.237 49.004 257.386 49.004C258.494 49.004 259.13 49.6125 259.13 50.9241V56.7388H261.622V50.8024C261.622 48.2061 260.487 46.8133 258.383 46.8133Z" fill="white"/>
<path d="M213.563 46.4347C213.563 45.5016 213.964 45.0825 214.878 45.0825H217.674V43H214.158C212.137 43 211.071 44.0277 211.071 45.9749V47.814H208.843V50.0046H211.071V56.7253H213.563V50.0181H215.999V47.814H213.563V46.4347Z" fill="white"/>
<path d="M207.541 43H205.049V56.7388H207.541V43Z" fill="white"/>
<path d="M204.316 60.7955H191V63.5H204.316V60.7955Z" fill="white"/>
<path d="M200.08 45.2988C199.692 44.19 199.263 43.3246 197.754 43.3246C196.259 43.3246 195.803 44.19 195.401 45.2988L191.276 56.7388H194.003L194.958 54.0208H200.218L201.104 56.7388H204.011L200.08 45.2988ZM195.761 51.722L197.63 46.2995H197.699L199.457 51.722H195.761Z" fill="white"/>
<path d="M250.908 53.818V50.6267C250.908 48.3008 249.386 46.8269 246.825 46.8269C244.181 46.8269 242.783 48.3819 242.658 50.0046H245.178C245.261 49.653 245.648 49.0445 246.825 49.0445C247.794 49.0445 248.417 49.4908 248.417 50.6267H245.939C243.724 50.6267 242.409 51.7625 242.409 53.6557C242.409 55.63 243.849 56.9822 245.925 56.9822C247.448 56.9822 248.292 56.279 248.652 55.7517C248.984 56.4007 249.704 56.7523 250.659 56.7523H251.517V54.5482C251.074 54.5482 250.908 54.3453 250.908 53.818ZM248.417 53.1959C248.417 54.2912 247.628 54.9133 246.589 54.9133C245.69 54.9133 244.984 54.5887 244.984 53.6422C244.984 52.7091 245.759 52.5604 246.437 52.5604H248.43V53.1959H248.417Z" fill="white"/>
<path d="M225.065 53.818V50.6267C225.065 48.3008 223.542 46.8269 220.982 46.8269C218.338 46.8269 216.94 48.3819 216.815 50.0046H219.334C219.417 49.653 219.805 49.0445 220.982 49.0445C221.95 49.0445 222.573 49.4908 222.573 50.6267H220.096C217.881 50.6267 216.566 51.7625 216.566 53.6557C216.566 55.63 218.005 56.9822 220.082 56.9822C221.604 56.9822 222.449 56.279 222.809 55.7517C223.141 56.4007 223.861 56.7523 224.816 56.7523H225.674V54.5482C225.231 54.5482 225.065 54.3453 225.065 53.818ZM222.573 53.1959C222.573 54.2912 221.784 54.9133 220.746 54.9133C219.846 54.9133 219.141 54.5887 219.141 53.6422C219.141 52.7091 219.916 52.5604 220.594 52.5604H222.587V53.1959H222.573Z" fill="white"/>
<path d="M239.004 49.7612C239.931 49.3556 240.79 48.409 240.79 47.0703C240.79 44.8255 239.281 43.4733 236.762 43.4733H230.297V56.7388H236.54C239.447 56.7388 241.094 55.3325 241.094 52.8849C241.08 51.1405 240.056 50.1534 239.004 49.7612ZM232.858 45.7856H236.457C237.523 45.7856 238.104 46.2724 238.104 47.2731C238.104 48.2332 237.537 48.7606 236.485 48.7606H232.872V45.7856H232.858ZM236.236 54.4265H232.858V51.0459H236.236C237.675 51.0459 238.395 51.6138 238.395 52.7362C238.395 53.8585 237.661 54.4265 236.236 54.4265Z" fill="white"/>
</g>
<g clip-path="url(#clip5)">
<path d="M359.721 144.431H352.455V140.205H348.701V151.259H352.455V146.816H359.721V151.259H363.475V140.205H359.721V144.431Z" fill="white"/>
<path d="M369.746 146.816L372.359 142.524L374.893 146.816H369.746ZM370.903 140.205L364.17 151.259H367.039L368.418 148.997H376.179L377.514 151.259H382.098L375.367 140.205H370.903Z" fill="white"/>
<path d="M396.99 144.994C397.886 143.823 397.764 142.108 396.049 141.123C394.448 140.207 391.393 139.869 389.485 139.869C386.432 139.869 384.466 140.075 382.794 140.359V151.259H386.549V142.014C387.901 141.748 389.273 141.741 389.786 141.765C391.276 141.832 392.114 142.062 392.786 142.54C393.477 143.031 393.665 144.124 392.766 144.881C392.094 145.448 390.728 145.894 387.674 145.425L387.245 146.134L393.017 151.259H398.127L392.993 146.816C394.227 146.659 396.098 146.163 396.99 144.994Z" fill="white"/>
<path d="M340.471 144.024C338.305 143.605 336.463 143.341 336.463 142.639C336.463 141.857 337.952 141.657 340.062 141.885C342.058 142.094 343.941 142.616 345.698 143.365L347.032 141.177C345.613 140.636 342.687 139.944 340.034 139.865C337.122 139.78 332.212 140.042 332 142.982C331.807 145.676 335.643 146.319 338.158 146.903C340.61 147.477 342.912 147.683 342.912 148.531C342.912 149.129 342.1 149.597 339.956 149.435C337.378 149.241 335.181 148.535 332.988 147.447L331.533 149.837C333.964 150.788 337.149 151.55 340.022 151.598C343.434 151.654 347.289 151.103 347.374 148.18C347.446 145.74 344.92 144.889 340.471 144.024Z" fill="white"/>
<path d="M409.12 144.905C408.471 145.435 407.523 145.624 406.03 145.62C404.926 145.615 403.784 145.414 402.855 145.202V142.014C404.206 141.748 405.602 141.744 406.114 141.765C407.615 141.827 408.487 142.082 409.137 142.54C409.813 143.012 410.037 144.152 409.12 144.905ZM412.401 141.123C410.873 140.22 408.011 139.869 405.816 139.869C402.761 139.869 400.774 140.075 399.102 140.359V151.259H402.855V147.265C404.014 147.459 405.47 147.573 406.726 147.563C409.799 147.538 412.081 146.816 413.122 145.686C414.604 144.075 414.107 142.132 412.401 141.123Z" fill="white"/>
</g>
<g clip-path="url(#clip6)">
<path d="M353.733 30.7735C352.934 27.2916 350.94 24.4618 350.672 24C350.238 24.649 348.653 27.1481 347.836 29.9218C346.959 33.0106 346.831 35.753 347.134 38.455C347.436 41.1569 348.572 43.9274 348.572 43.9274C349.18 45.3845 350.088 46.9445 350.678 47.712C351.545 46.5857 353.539 43.2192 354.163 38.8294C354.513 36.3895 354.522 34.2523 353.733 30.7735ZM350.672 46.8446C350.282 46.1083 349.673 44.7074 349.614 42.539C349.595 40.4455 350.438 38.6546 350.681 38.2802C350.896 38.6546 351.627 40.2146 351.714 42.3518C351.764 44.4485 351.068 46.0927 350.672 46.8446ZM353.499 36.6797C353.474 38.0057 353.318 39.4097 353.109 40.2458C353.187 38.8013 353.012 36.767 352.675 35.1758C352.344 33.5878 351.408 30.9326 350.653 29.7034C349.96 30.8734 349.109 33.1697 348.659 35.1602C348.216 37.1539 348.201 39.5657 348.201 40.2895C348.079 39.6811 347.786 37.5065 347.87 35.3225C347.939 33.5191 348.357 31.669 348.591 30.8172C349.474 27.9718 350.472 26.1528 350.653 25.8626C350.843 26.1528 352.101 28.3898 352.753 30.7423C353.402 33.0979 353.533 35.3506 353.499 36.6797Z" fill="white"/>
<path d="M352.013 48.5232H345.97V52.5792C345.979 52.573 345.989 52.5667 345.989 52.5636C347.411 51.1409 349.726 51.1409 351.146 52.5636C352.569 53.9894 352.569 56.2982 351.146 57.721C351.137 57.7272 351.137 57.7334 351.127 57.7366V57.7397C351.118 57.7459 351.108 57.7522 351.102 57.7584C349.689 59.1686 347.826 59.8738 345.97 59.8738C344.107 59.8738 342.241 59.1624 340.819 57.7397C338.316 55.2312 338.02 51.3562 339.926 48.5232C340.185 48.1394 340.482 47.7775 340.819 47.4374C342.241 46.0147 344.104 45.3034 345.97 45.3034V35.5502C338.809 35.5502 333 41.3597 333 48.5232C333 55.6867 338.809 61.493 345.97 61.493C349.708 61.493 353.071 59.9143 355.439 57.3871V48.5232H352.013ZM363.105 59.1811C363.105 60.089 362.993 61.4962 361.17 61.4962H359.021C357.208 61.4962 357.096 60.089 357.096 59.1811V50.8414C357.096 49.9334 357.208 48.5232 359.021 48.5232H361.17C362.993 48.5232 363.105 49.9303 363.105 50.8414V52.6759H360.503V50.5606C360.503 50.339 360.337 50.1362 360.094 50.1362C359.947 50.1362 359.685 50.2267 359.685 50.5606V59.4058C359.685 59.7396 359.944 59.8301 360.094 59.8301C360.337 59.8301 360.503 59.6273 360.503 59.4058V56.5666H360.113V55.1407H363.105V59.1811ZM367.005 56.6227L367.448 50.1394H367.595L368.044 56.6227H367.005ZM364.134 61.4962H366.674L366.908 58.0517H368.131L368.375 61.4962H370.914L369.56 48.5263H365.485L364.134 61.4962ZM371.878 59.8644L374.368 50.1394H372.14V48.5232H377.029V50.1362L374.549 59.8301H377.185V61.493H371.878V59.8644ZM381.001 55.4683V50.1331H381.332C381.619 50.1331 381.819 50.3734 381.819 50.7821V54.8194C381.819 55.2281 381.619 55.4683 381.332 55.4683H381.001ZM378.399 61.4962H381.001V57.0876H382.483C384.296 57.0876 384.408 55.6805 384.408 54.7726V50.8414C384.408 49.9334 384.296 48.5232 382.483 48.5232H378.399V61.4962ZM388.336 55.0783V50.1331H388.673C388.951 50.1331 389.151 50.3734 389.151 50.7821V54.4294C389.151 54.8381 388.951 55.0783 388.673 55.0783H388.336ZM392.08 61.4962L390.804 56.4386C391.725 56.0674 391.74 55.2156 391.74 54.863V50.8414C391.74 49.9334 391.637 48.5232 389.815 48.5232H385.74V61.493H388.333V56.6976H388.524L389.406 61.4962H392.08ZM396.885 59.4058C396.885 59.6273 396.72 59.8332 396.476 59.8332C396.33 59.8332 396.068 59.7396 396.068 59.4058V50.5606C396.068 50.2267 396.327 50.1362 396.476 50.1362C396.72 50.1362 396.885 50.339 396.885 50.5606V59.4058ZM393.478 59.1811C393.478 60.089 393.59 61.4962 395.412 61.4962H397.553C399.375 61.4962 399.487 60.089 399.487 59.1811V50.8414C399.487 49.9334 399.375 48.5232 397.553 48.5232H395.412C393.59 48.5232 393.478 49.9303 393.478 50.8414V59.1811ZM407.627 48.5263H411V61.4962H408.407V53.3623H408.311L406.975 61.4962H404.904L403.568 53.3623H403.471V61.4962H400.879V48.5263H404.251L405.933 57.643L407.627 48.5263Z" fill="white"/>
</g>
<g clip-path="url(#clip7)">
<path d="M64.3886 248.582C60.5761 248.582 57.4863 245.47 57.4863 241.632C57.4863 237.794 60.5761 234.685 64.3886 234.685C65.7323 234.685 66.9869 235.071 68.0468 235.739L64.3886 241.632L71.2755 237.629C70.5273 236.43 69.4541 235.396 68.1565 234.611C66.5052 233.616 64.2082 233 61.6682 233C58.045 233 54.8664 234.325 53.0938 236.31C51.7814 237.777 51 239.623 51 241.632C51 243.642 51.7814 245.49 53.0938 246.958C54.871 248.945 58.0023 250.263 61.5657 250.263C65.1286 250.263 68.259 248.944 70.0373 246.958C70.1347 246.849 70.229 246.738 70.3182 246.624L70.0496 245.611C68.8002 247.406 66.7307 248.582 64.3886 248.582Z" fill="white"/>
<path d="M87.2212 249.845L84.3307 238.991C83.8664 237.237 82.2797 235.948 80.3906 235.948C79.9007 235.948 79.4312 236.036 78.9956 236.196L72.7728 238.473H79.1729L80.2666 242.584C79.2057 241.665 77.824 241.106 76.3111 241.106C73.3068 241.106 70.8745 243.133 70.8745 245.632C70.8745 248.132 73.3068 250.161 76.3111 250.161C78.4739 250.161 80.3865 249.096 81.5663 247.458L82.2008 249.845H87.2212ZM78.4042 248.159C77.0184 248.159 75.895 247.029 75.895 245.632C75.895 244.237 77.0184 243.107 78.4042 243.107C79.79 243.107 80.9144 244.237 80.9144 245.632C80.9144 247.029 79.79 248.159 78.4042 248.159Z" fill="white"/>
<path d="M99.0071 235.95C98.6278 235.95 98.2691 236.034 97.9493 236.186L93.9539 238.06C93.756 236.863 92.7228 235.95 91.4764 235.95C91.0992 235.95 90.7395 236.034 90.4156 236.186L85.5376 238.473H88.9672V249.845H93.9877V239.738C93.9877 239.041 94.5484 238.473 95.2433 238.473C95.9342 238.473 96.4989 239.041 96.4989 239.738V249.845H101.517V238.473C101.517 237.079 100.393 235.95 99.0071 235.95" fill="white"/>
<path d="M130.491 235.95C130.11 235.95 129.75 236.034 129.425 236.186L125.433 238.06C125.236 236.863 124.203 235.95 122.957 235.95C122.58 235.95 122.22 236.034 121.895 236.186L117.019 238.473H120.448V249.845H125.467V239.738C125.467 239.041 126.029 238.473 126.724 238.473C127.417 238.473 127.977 239.041 127.977 239.738V249.845H133V238.473C133 237.079 131.874 235.95 130.491 235.95" fill="white"/>
<path d="M117.831 243.107C117.831 247.059 114.649 250.263 110.723 250.263C106.794 250.263 103.609 247.059 103.609 243.107C103.609 239.155 106.794 235.95 110.723 235.95C114.649 235.95 117.831 239.155 117.831 243.107ZM111.017 238.122C110.794 237.28 109.934 236.78 109.097 237.006C108.262 237.232 107.763 238.098 107.987 238.94L110.426 248.091C110.651 248.934 111.509 249.433 112.345 249.21C113.182 248.982 113.679 248.117 113.455 247.275L111.017 238.122Z" fill="white"/>
</g>
<path opacity="0.2" fill-rule="evenodd" clip-rule="evenodd" d="M167.5 11C167.5 10.7239 167.276 10.5 167 10.5C166.724 10.5 166.5 10.7239 166.5 11V94H1C0.723858 94 0.5 94.2239 0.5 94.5C0.5 94.7761 0.723858 95 1 95H166.5V195.5H1C0.723858 195.5 0.5 195.724 0.5 196C0.5 196.276 0.723858 196.5 1 196.5H166.5V297C166.5 297.276 166.724 297.5 167 297.5C167.276 297.5 167.5 297.276 167.5 297V196.5H295.5V297C295.5 297.276 295.724 297.5 296 297.5C296.276 297.5 296.5 297.276 296.5 297V196.5H461C461.276 196.5 461.5 196.276 461.5 196C461.5 195.724 461.276 195.5 461 195.5H296.5V95H461C461.276 95 461.5 94.7761 461.5 94.5C461.5 94.2239 461.276 94 461 94H296.5V11C296.5 10.7239 296.276 10.5 296 10.5C295.724 10.5 295.5 10.7239 295.5 11V94H167.5V11ZM295.5 195.5V95H167.5V195.5H295.5Z" fill="url(#paint0_radial)"/>
<defs>
<radialGradient id="paint0_radial" cx="0" cy="0" r="1" gradientUnits="userSpaceOnUse" gradientTransform="translate(231 154) rotate(90) scale(130 208.815)">
<stop stop-color="white"/>
<stop offset="1" stop-color="white" stop-opacity="0"/>
</radialGradient>
<clipPath id="clip0">
<rect width="97" height="51" fill="white" transform="translate(43 24)"/>
</clipPath>
<clipPath id="clip1">
<rect width="71.3998" height="17.7377" fill="white" transform="translate(57.6001 136.894)"/>
</clipPath>
<clipPath id="clip2">
<rect width="52" height="22.1277" fill="white" transform="translate(346 230.979)"/>
</clipPath>
<clipPath id="clip3">
<rect width="78" height="24" fill="white" transform="translate(193 230)"/>
</clipPath>
<clipPath id="clip4">
<rect width="82" height="20.5" fill="white" transform="translate(191 43)"/>
</clipPath>
<clipPath id="clip5">
<rect width="82.9997" height="12.2962" fill="white" transform="translate(331 139.852)"/>
</clipPath>
<clipPath id="clip6">
<rect width="78" height="37.4962" fill="white" transform="translate(333 24)"/>
</clipPath>
<clipPath id="clip7">
<rect width="82" height="17.2632" fill="white" transform="translate(51 233)"/>
</clipPath>
</defs>
</svg>
