<svg width="32" height="32" viewBox="0 0 32 32" fill="none" xmlns="http://www.w3.org/2000/svg">
<path d="M4 24V8H10C11.0609 8 12.0783 8.42143 12.8284 9.17157C13.5786 9.92172 14 10.9391 14 12C14 13.0609 13.5786 14.0783 12.8284 14.8284C12.0783 15.5786 11.0609 16 10 16C11.0609 16 12.0783 16.4214 12.8284 17.1716C13.5786 17.9217 14 18.9391 14 20C14 21.0609 13.5786 22.0783 12.8284 22.8284C12.0783 23.5786 11.0609 24 10 24H4Z" stroke="white" stroke-width="2" stroke-linecap="round" stroke-linejoin="round"/>
<path d="M4 16H10" stroke="white" stroke-width="2" stroke-linecap="round" stroke-linejoin="round"/>
<path d="M18.6666 17.3334H28C28 16.0957 27.5083 14.9088 26.6331 14.0336C25.758 13.1584 24.571 12.6667 23.3333 12.6667C22.0956 12.6667 20.9086 13.1584 20.0335 14.0336C19.1583 14.9088 18.6666 16.0957 18.6666 17.3334V20.0001C18.8042 20.9983 19.2611 21.9252 19.9691 22.6422C20.6772 23.3592 21.5982 23.8277 22.5946 23.9778C23.5911 24.1278 24.6093 23.9513 25.4971 23.4747C26.3849 22.998 27.0945 22.2469 27.52 21.3334" stroke="white" stroke-width="2" stroke-linecap="round" stroke-linejoin="round"/>
<path d="M21.3334 8H25.3334" stroke="white" stroke-width="2" stroke-linecap="round" stroke-linejoin="round"/>
</svg>
