<svg width="141" height="20" viewBox="0 0 141 20" fill="none" xmlns="http://www.w3.org/2000/svg">
<path d="M10.5618 0H16.3121V19.9408H10.5618V12.3077H5.69164V19.9408H0V0H5.69164V7.51479H10.5618V0Z" fill="black"/>
<path d="M19.7739 19.9408V0H33.7976V4.61539H25.4656V7.57396H32.9175V12.1893H25.4656V15.3254H33.6803V19.9408H19.7739Z" fill="black"/>
<path d="M48.8776 19.9408L47.8801 16.3905H41.8364L40.8389 19.9408H34.9126L42.0711 0H47.7628L54.9213 19.9408H48.8776ZM43.0687 12.1893H46.7066L44.8876 5.97633L43.0687 12.1893Z" fill="black"/>
<path d="M64.5444 0H70.5294L63.9576 19.9408H58.3833L51.8115 0H57.9139L61.2585 12.3077L64.5444 0Z" fill="black"/>
<path d="M72.231 19.9408V0H86.2547V4.61539H77.9226V7.57396H85.3745V12.1893H77.9226V15.3254H86.1373V19.9408H72.231Z" fill="black"/>
<path d="M101.158 0H106.263V19.9408H101.335L94.6454 8.93491V19.9408H89.5405V0H94.4694L101.217 11.0059V0H101.158Z" fill="black"/>
<path d="M113.422 6.39053H113.657V6.15385V3.78698H115.417C115.945 3.78698 116.414 3.66864 116.766 3.37278C117.236 3.01775 117.471 2.54438 117.471 1.83432C117.471 1.12426 117.236 0.591716 116.708 0.295858C116.414 0.0591716 115.945 0 115.299 0H113.011H112.776V0.236686V6.09467V6.33136H113.011H113.422V6.39053ZM113.657 3.01775V0.828402H115.241C115.417 0.828402 115.534 0.828402 115.652 0.828402C115.71 0.828402 115.828 0.828402 115.945 0.887574C116.062 0.887574 116.121 0.946746 116.238 1.00592C116.532 1.18343 116.649 1.47929 116.649 1.89349C116.649 2.30769 116.473 2.60355 116.18 2.78106C116.062 2.84024 115.769 2.95858 115.241 2.95858L113.657 3.01775Z" fill="black"/>
<path d="M128.913 5.85799C128.854 5.68048 128.854 5.44379 128.854 5.02959C128.854 4.61539 128.795 4.3787 128.795 4.20119C128.737 3.84616 128.561 3.5503 128.326 3.43196C128.267 3.37279 128.267 3.37279 128.209 3.37279C128.326 3.31361 128.443 3.19527 128.561 3.07693C128.795 2.78107 128.971 2.36687 128.971 1.95267C128.971 1.30178 128.737 0.769237 128.209 0.473379C127.856 0.236692 127.446 0.177521 126.859 0.177521H124.453H124.219V0.414207V6.27219V6.50888H124.453H124.805H125.04V6.27219V3.84616H126.624C127.27 3.84616 127.563 3.9645 127.68 4.02367C127.915 4.14202 127.974 4.55622 127.974 4.85208C127.974 4.91125 127.974 4.97042 127.974 5.20711C127.974 5.38462 127.974 5.56214 127.974 5.73965C127.974 5.91717 127.974 6.03551 128.032 6.09468C128.032 6.21302 128.091 6.33137 128.15 6.44971L128.209 6.56805H128.326H128.737H129.147L128.913 6.21302C128.971 5.91717 128.913 5.85799 128.913 5.85799ZM128.032 2.3077C127.974 2.42604 127.915 2.54438 127.856 2.60356C127.798 2.66273 127.68 2.7219 127.504 2.78107C127.328 2.84024 127.211 2.84024 127.094 2.89941C126.918 2.89941 126.8 2.89941 126.566 2.89941H125.04V0.828408H126.742C127.152 0.828408 127.504 0.88758 127.68 1.00592C127.974 1.18344 128.091 1.42012 128.091 1.83433C128.091 2.01184 128.091 2.18935 128.032 2.3077Z" fill="black"/>
<path d="M138.125 6.39053C139.122 6.39053 139.826 6.09467 140.296 5.44379C140.765 4.85207 141 4.08284 141 3.07692C141 2.13018 140.765 1.36095 140.237 0.828402C139.709 0.295858 139.005 0 138.066 0H136.13H135.895V0.236686V6.09467V6.33136H136.13L138.125 6.39053ZM136.775 5.6213V0.887574H138.125C138.829 0.887574 139.357 1.06509 139.65 1.47929C140.002 1.89349 140.178 2.48521 140.178 3.19527C140.178 4.85207 139.474 5.6213 138.007 5.6213H136.775Z" fill="black"/>
<path d="M117.705 17.1006H117.471V17.3373C117.412 17.929 117.177 18.3432 116.884 18.6982C116.532 19.0533 116.121 19.2308 115.534 19.2308C114.889 19.2308 114.419 18.9941 114.009 18.5799C113.598 18.1065 113.422 17.5148 113.422 16.7456C113.422 15.9764 113.598 15.3846 114.009 14.9113C114.419 14.4379 114.889 14.2604 115.534 14.2604C116.004 14.2604 116.414 14.3787 116.708 14.6154C117.06 14.8521 117.236 15.2071 117.353 15.6213L117.412 15.7988H117.588H117.94H118.233L118.175 15.503C118.116 14.8521 117.823 14.3195 117.295 13.9645C116.766 13.6095 116.18 13.3728 115.534 13.3728C114.654 13.3728 113.95 13.6687 113.363 14.3195C112.835 14.9113 112.542 15.7397 112.542 16.7456C112.542 17.7515 112.835 18.5207 113.363 19.1124C113.891 19.7042 114.595 20.0592 115.476 20.0592C116.238 20.0592 116.884 19.8225 117.412 19.3491C117.94 18.8758 118.233 18.2249 118.292 17.4556V17.1598H117.999L117.705 17.1006Z" fill="black"/>
<path d="M124.453 13.4911H124.219V13.787V14.0828V14.3195H124.453H126.272V19.645V19.8817H126.507H126.859H127.094V19.645V14.3195H128.913H129.147V14.0828V13.787V13.4911H128.913H124.453Z" fill="black"/>
<path d="M140.413 13.4911H140.178V13.7278V18.0473C140.178 18.1065 140.178 18.2248 140.178 18.284C140.12 18.2248 140.12 18.1657 140.061 18.1657L136.834 13.6095L136.775 13.4911H136.658H136.247H136.012V13.7278V19.5858V19.8225H136.247H136.599H136.834V19.5858V15.0296C136.834 15.0296 136.834 15.0888 136.893 15.0888L140.178 19.7633L140.237 19.8817H140.355H140.765H141V19.645V13.787V13.5503H140.765H140.413V13.4911Z" fill="black"/>
</svg>
