<svg width="32" height="32" viewBox="0 0 32 32" fill="none" xmlns="http://www.w3.org/2000/svg">
<path d="M21.3334 5.33325H10.6667C7.72119 5.33325 5.33337 7.72107 5.33337 10.6666V21.3333C5.33337 24.2788 7.72119 26.6666 10.6667 26.6666H21.3334C24.2789 26.6666 26.6667 24.2788 26.6667 21.3333V10.6666C26.6667 7.72107 24.2789 5.33325 21.3334 5.33325Z" stroke="white" stroke-width="2" stroke-linecap="round" stroke-linejoin="round"/>
<path d="M16 20C18.2091 20 20 18.2091 20 16C20 13.7909 18.2091 12 16 12C13.7909 12 12 13.7909 12 16C12 18.2091 13.7909 20 16 20Z" stroke="white" stroke-width="2" stroke-linecap="round" stroke-linejoin="round"/>
<path d="M22 10V10.001" stroke="white" stroke-width="2" stroke-linecap="round" stroke-linejoin="round"/>
</svg>
