<svg width="324" height="46" viewBox="0 0 324 46" fill="none" xmlns="http://www.w3.org/2000/svg">
<g clip-path="url(#clip0)">
<path d="M24.2697 0H37.4831V45.8639H24.2697V28.3077H13.0787V45.8639H0V0H13.0787V17.284H24.2697V0Z" fill="white"/>
<path d="M45.4382 45.8639V0H77.6629V10.6154H58.5169V17.4201H75.6404V28.0355H58.5169V35.2485H77.3933V45.8639H45.4382Z" fill="white"/>
<path d="M112.315 45.8639L110.022 37.6982H96.1348L93.8427 45.8639H80.2247L96.6742 0H109.753L126.202 45.8639H112.315ZM98.9663 28.0355H107.326L103.146 13.7456L98.9663 28.0355Z" fill="white"/>
<path d="M148.315 0H162.067L146.966 45.8639H134.157L119.056 0H133.079L140.764 28.3077L148.315 0Z" fill="white"/>
<path d="M165.978 45.8639V0H198.202V10.6154H179.056V17.4201H196.18V28.0355H179.056V35.2485H197.933V45.8639H165.978Z" fill="white"/>
<path d="M232.449 0H244.18V45.8639H232.854L217.483 20.5503V45.8639H205.753V0H217.079L232.584 25.3136V0H232.449Z" fill="white"/>
<path d="M260.629 14.6982H261.169V14.1538V8.71006H265.213C266.427 8.71006 267.506 8.43787 268.315 7.7574C269.393 6.94083 269.933 5.85207 269.933 4.21894C269.933 2.5858 269.393 1.36095 268.18 0.680473C267.506 0.136095 266.427 0 264.944 0H259.685H259.146V0.544379V14.0178V14.5621H259.685H260.629V14.6982ZM261.169 6.94083V1.90533H264.809C265.213 1.90533 265.483 1.90533 265.753 1.90533C265.888 1.90533 266.157 1.90533 266.427 2.04142C266.697 2.04142 266.831 2.17751 267.101 2.31361C267.775 2.72189 268.045 3.40237 268.045 4.35503C268.045 5.30769 267.64 5.98817 266.966 6.39645C266.697 6.53254 266.022 6.80473 264.809 6.80473L261.169 6.94083Z" fill="white"/>
<path d="M296.225 13.4734C296.09 13.0651 296.09 12.5207 296.09 11.568C296.09 10.6154 295.955 10.071 295.955 9.66272C295.82 8.84615 295.416 8.16568 294.876 7.89349C294.742 7.7574 294.742 7.7574 294.607 7.7574C294.876 7.6213 295.146 7.34911 295.416 7.07692C295.955 6.39645 296.36 5.44379 296.36 4.49112C296.36 2.99408 295.82 1.76923 294.607 1.08876C293.798 0.544378 292.854 0.408283 291.506 0.408283H285.978H285.438V0.952662V14.426V14.9704H285.978H286.787H287.326V14.426V8.84615H290.966C292.449 8.84615 293.124 9.11834 293.393 9.25444C293.933 9.52663 294.067 10.4793 294.067 11.1598C294.067 11.2959 294.067 11.432 294.067 11.9763C294.067 12.3846 294.067 12.7929 294.067 13.2012C294.067 13.6095 294.067 13.8817 294.202 14.0178C294.202 14.2899 294.337 14.5621 294.472 14.8343L294.607 15.1065H294.876H295.82H296.764L296.225 14.2899C296.36 13.6095 296.225 13.4734 296.225 13.4734ZM294.202 5.30769C294.067 5.57988 293.933 5.85207 293.798 5.98816C293.663 6.12426 293.393 6.26035 292.989 6.39645C292.584 6.53254 292.315 6.53254 292.045 6.66864C291.64 6.66864 291.371 6.66864 290.831 6.66864H287.326V1.90532H291.236C292.18 1.90532 292.989 2.04142 293.393 2.31361C294.067 2.72189 294.337 3.26627 294.337 4.21893C294.337 4.62722 294.337 5.0355 294.202 5.30769Z" fill="white"/>
<path d="M317.393 14.6982C319.685 14.6982 321.303 14.0178 322.382 12.5207C323.461 11.1598 324 9.39053 324 7.07692C324 4.89941 323.461 3.13018 322.247 1.90533C321.034 0.680473 319.416 0 317.258 0H312.809H312.27V0.544379V14.0178V14.5621H312.809L317.393 14.6982ZM314.292 12.929V2.04142H317.393C319.011 2.04142 320.225 2.4497 320.899 3.40237C321.708 4.35503 322.112 5.71598 322.112 7.34911C322.112 11.1598 320.494 12.929 317.124 12.929H314.292Z" fill="white"/>
<path d="M270.472 39.3314H269.933V39.8757C269.798 41.2367 269.258 42.1893 268.584 43.0059C267.775 43.8225 266.831 44.2308 265.483 44.2308C264 44.2308 262.921 43.6864 261.978 42.7337C261.034 41.645 260.629 40.284 260.629 38.5148C260.629 36.7456 261.034 35.3846 261.978 34.2959C262.921 33.2071 264 32.7988 265.483 32.7988C266.562 32.7988 267.506 33.071 268.18 33.6154C268.989 34.1598 269.393 34.9763 269.663 35.929L269.798 36.3373H270.202H271.011H271.685L271.551 35.6568C271.416 34.1598 270.742 32.9349 269.528 32.1183C268.315 31.3018 266.966 30.7574 265.483 30.7574C263.461 30.7574 261.843 31.4379 260.494 32.9349C259.281 34.2959 258.607 36.2012 258.607 38.5148C258.607 40.8284 259.281 42.5976 260.494 43.9586C261.708 45.3195 263.326 46.1361 265.348 46.1361C267.101 46.1361 268.584 45.5917 269.798 44.503C271.011 43.4142 271.685 41.9172 271.82 40.1479V39.4675H271.146L270.472 39.3314Z" fill="white"/>
<path d="M285.978 31.0296H285.438V31.7101V32.3905V32.9349H285.978H290.157V45.1834V45.7278H290.697H291.506H292.045V45.1834V32.9349H296.225H296.764V32.3905V31.7101V31.0296H296.225H285.978Z" fill="white"/>
<path d="M322.652 31.0296H322.112V31.574V41.5089C322.112 41.645 322.112 41.9172 322.112 42.0533C321.978 41.9172 321.978 41.7811 321.843 41.7811L314.427 31.3018L314.292 31.0296H314.022H313.079H312.539V31.574V45.0473V45.5917H313.079H313.888H314.427V45.0473V34.568C314.427 34.568 314.427 34.7041 314.562 34.7041L322.112 45.4556L322.247 45.7278H322.517H323.461H324V45.1834V31.7101V31.1657H323.461H322.652V31.0296Z" fill="white"/>
</g>
<defs>
<clipPath id="clip0">
<rect width="324" height="46" fill="white"/>
</clipPath>
</defs>
</svg>
