<svg width="32" height="32" viewBox="0 0 32 32" fill="none" xmlns="http://www.w3.org/2000/svg">
<path d="M23.3079 5.33875C20.0539 5.21583 17.8559 7.15408 16.6963 11.123C17.2927 10.8457 17.8725 10.7218 18.4337 10.7218C19.6256 10.7218 20.1526 11.4298 20.0118 12.8368C19.9414 13.6891 19.4174 14.9284 18.4357 16.5588C17.4491 18.1893 16.7119 19.006 16.2211 19.006C14.7329 19.006 13.8383 11.6066 13.5352 9.58603C13.1137 6.7772 11.9903 5.4637 10.1648 5.64757C8.48894 5.81315 5.56446 8.94808 3.26672 11.0732L4.37061 12.5686C5.42171 11.7945 6.03476 11.4064 6.20978 11.4064C8.03917 11.4064 8.92502 17.8744 10.3457 22.6844C11.299 25.3389 12.442 26.6666 13.8197 26.6666C16.0333 26.6666 18.73 24.4886 21.9253 20.1306C25.0101 15.9585 26.6078 12.6702 26.7105 10.2717L26.7232 10.2616C26.8542 7.0464 25.7249 5.40072 23.3079 5.33875Z" fill="white"/>
</svg>
